<?xml version="1.0" encoding="UTF-8" standalone="no"?>
<svg
   xmlns:dc="http://purl.org/dc/elements/1.1/"
   xmlns:cc="http://creativecommons.org/ns#"
   xmlns:rdf="http://www.w3.org/1999/02/22-rdf-syntax-ns#"
   xmlns:svg="http://www.w3.org/2000/svg"
   xmlns="http://www.w3.org/2000/svg"
   xmlns:sodipodi="http://sodipodi.sourceforge.net/DTD/sodipodi-0.dtd"
   xmlns:inkscape="http://www.inkscape.org/namespaces/inkscape"
   version="1.1"
   id="svg2"
   xml:space="preserve"
   width="366.92932"
   height="269.95334"
   viewBox="0 0 366.92932 269.95334"
   sodipodi:docname="DG_MONOGRAM.ai"><metadata
     id="metadata8"><rdf:RDF><cc:Work
         rdf:about=""><dc:format>image/svg+xml</dc:format><dc:type
           rdf:resource="http://purl.org/dc/dcmitype/StillImage" /></cc:Work></rdf:RDF></metadata><defs
     id="defs6"><clipPath
       clipPathUnits="userSpaceOnUse"
       id="clipPath18"><path
         d="M 0,202.465 H 275.197 V 0 H 0 Z"
         id="path16" /></clipPath></defs><sodipodi:namedview
     pagecolor="#ffffff"
     bordercolor="#666666"
     borderopacity="1"
     objecttolerance="10"
     gridtolerance="10"
     guidetolerance="10"
     inkscape:pageopacity="0"
     inkscape:pageshadow="2"
     inkscape:window-width="640"
     inkscape:window-height="480"
     id="namedview4" /><g
     id="g10"
     inkscape:groupmode="layer"
     inkscape:label="DG_MONOGRAM"
     transform="matrix(1.3333333,0,0,-1.3333333,0,269.95333)"><g
       id="g12"><g
         id="g14"
         clip-path="url(#clipPath18)"><g
           id="g20"
           transform="translate(61.4048,31.0193)"><path
             d="m 0,0 c 52.847,0 82.953,25.761 82.953,70.697 0,43.507 -32.028,70.698 -82.953,70.698 H -25.411 V 0 Z M -54.437,166.01 H 4.815 c 65.658,0 107.295,-36.923 107.295,-95.599 0,-56.672 -41.637,-95.026 -103.772,-95.026 h -62.775 z"
             style="fill:#231f20;fill-opacity:1;fill-rule:nonzero;stroke:none"
             id="path22" /></g><g
           id="g24"
           transform="translate(273.2744,103.2561)"><path
             d="m 0,0 h -87.799 v -21.792 h 57.423 c -4.298,-30.066 -29.796,-49.64 -61.891,-49.64 -40.405,0 -68.201,27.879 -68.201,68.605 0,40.727 29.516,71.066 69.348,71.066 0.697,0 1.388,-0.007 2.07,-0.021 0.034,0 0.068,-0.003 0.102,-0.003 28.046,-0.068 46.087,-17.185 53.815,-26.472 2.877,-3.457 4.336,-5.837 4.336,-5.837 l 21.298,11.051 c 0,0 -1.66,3.626 -5.291,8.856 -3.824,5.508 -9.841,12.793 -18.412,19.501 -12.489,9.773 -30.402,18.314 -54.89,18.314 v -0.001 c -0.999,0.021 -2.008,0.032 -3.028,0.032 -56.166,0 -99.151,-42.639 -99.151,-98.125 0,-26.241 8.597,-47.286 25.791,-63.96 18.053,-17.767 44.99,-28.426 71.353,-28.426 27.51,0 56.447,11.753 73.067,31.159 C -6.019,-49.566 1.726,-33.792 0,0"
             style="fill:#231f20;fill-opacity:1;fill-rule:nonzero;stroke:none"
             id="path26" /></g></g></g></g></svg>
